<svg width="24" height="24" viewBox="0 0 24 24" fill="none" xmlns="http://www.w3.org/2000/svg">
<path fill-rule="evenodd" clip-rule="evenodd" d="M18.3775 5.61583C16.6854 3.92988 14.4351 3.001 12.0376 3C7.0976 3 3.07705 7.00102 3.0751 11.9188C3.07448 13.4206 3.45106 14.888 4.16846 16.1954C4.23295 16.313 4.25142 16.4508 4.21586 16.5801L3.22975 20.1648C3.12765 20.536 3.46568 20.8784 3.83814 20.7812L7.55987 19.8096C7.6827 19.7776 7.81286 19.794 7.92574 19.852C9.19056 20.5027 10.6004 20.8449 12.034 20.8453H12.0376C16.9771 20.8453 20.9979 16.8439 21 11.926C21.0009 9.54271 20.0695 7.30173 18.3775 5.61583Z" stroke="#8B98B9" stroke-width="1.5"/>
</svg>
