<svg width="24" height="24" viewBox="0 0 24 24" fill="none" xmlns="http://www.w3.org/2000/svg">
<path d="M20 12C20.5523 12 21.0058 12.4494 20.9452 12.9984C20.4485 17.4991 16.6331 21 12 21C7.02944 21 3 16.9706 3 12C3 7.3669 6.50088 3.55147 11.0016 3.05475C11.5506 2.99417 12 3.44772 12 4V10C12 11.1046 12.8954 12 14 12H20Z" fill="white" stroke="white" stroke-width="1.5"/>
<path fill-rule="evenodd" clip-rule="evenodd" d="M15.1951 3.55015C15.3736 3.17634 15.8213 3.01794 16.1951 3.19637C18.2084 4.15735 19.8397 5.78792 20.8016 7.80071C20.9802 8.17444 20.822 8.6222 20.4483 8.8008C20.0746 8.9794 19.6268 8.82122 19.4482 8.4475C18.6342 6.74429 17.2526 5.36324 15.5489 4.55007C15.1751 4.37165 15.0167 3.92397 15.1951 3.55015Z" fill="white"/>
</svg>
