<svg width="20" height="20" viewBox="0 0 20 20" fill="none" xmlns="http://www.w3.org/2000/svg">
<path fill-rule="evenodd" clip-rule="evenodd" d="M16.3775 3.61583C14.6854 1.92988 12.4351 1.001 10.0376 1C5.0976 1 1.07705 5.00102 1.0751 9.91884C1.07448 11.4206 1.45106 12.888 2.16846 14.1954C2.23295 14.313 2.25142 14.4508 2.21586 14.5801L1.22975 18.1648C1.12765 18.536 1.46568 18.8784 1.83814 18.7812L5.55987 17.8096C5.6827 17.7776 5.81286 17.794 5.92574 17.852C7.19056 18.5027 8.60036 18.8449 10.034 18.8453H10.0376C14.9771 18.8453 18.9979 14.8439 19 9.92601C19.0009 7.54271 18.0695 5.30173 16.3775 3.61583Z" fill="#1280D6" stroke="#1280D6" stroke-width="1.5"/>
</svg>
