<svg width="170" height="34" viewBox="0 0 170 34" fill="none" xmlns="http://www.w3.org/2000/svg">
<path d="M14.7277 0H18.3702V24.7861H14.7277V13.3491H3.64251V24.7861H0V0H3.64251V9.66657H14.7277V0Z" fill="white"/>
<path d="M29.7322 25.2464C28.1211 25.2464 26.6501 24.8274 25.3192 23.9894C23.9999 23.1514 22.9434 22.0301 22.1495 20.6256C21.3673 19.2092 20.9762 17.6453 20.9762 15.9339C20.9762 14.6356 21.2038 13.4258 21.6592 12.3045C22.1145 11.1714 22.7391 10.18 23.5329 9.33019C24.3385 8.46858 25.2725 7.79581 26.3349 7.31189C27.3973 6.82797 28.5297 6.58602 29.7322 6.58602C31.3433 6.58602 32.8085 7.00502 34.1278 7.84302C35.4587 8.68103 36.5152 9.8082 37.2974 11.2246C38.0913 12.6409 38.4883 14.2107 38.4883 15.9339C38.4883 17.2204 38.2606 18.4243 37.8053 19.5456C37.35 20.6669 36.7195 21.6583 35.914 22.5199C35.1201 23.3697 34.192 24.0366 33.1296 24.5205C32.0788 25.0044 30.9464 25.2464 29.7322 25.2464ZM29.7322 21.5639C30.7012 21.5639 31.571 21.3042 32.3415 20.7849C33.112 20.2656 33.7191 19.581 34.1628 18.7312C34.6181 17.8696 34.8457 16.9372 34.8457 15.9339C34.8457 14.9071 34.6122 13.9628 34.1453 13.1012C33.6899 12.2396 33.077 11.555 32.3065 11.0475C31.536 10.5282 30.6779 10.2685 29.7322 10.2685C28.7749 10.2685 27.9051 10.5282 27.1229 11.0475C26.3524 11.5668 25.7395 12.2573 25.2842 13.1189C24.8405 13.9805 24.6187 14.9189 24.6187 15.9339C24.6187 16.9844 24.8522 17.9345 25.3192 18.7843C25.7862 19.6341 26.4049 20.3128 27.1755 20.8203C27.9577 21.316 28.8099 21.5639 29.7322 21.5639Z" fill="white"/>
<path d="M40.7397 24.7861V7.08174H44.3822V9.22396C44.9426 8.52759 45.5321 7.96105 46.1509 7.52434C46.7813 7.07584 47.5285 6.85158 48.3924 6.85158C49.6766 6.85158 50.8149 7.14665 51.8073 7.7368C52.8113 8.31514 53.6519 9.12364 54.329 10.1623C55.0062 9.11183 55.8467 8.29743 56.8508 7.71909C57.8665 7.14075 58.9989 6.85158 60.2481 6.85158C61.7541 6.85158 63.0792 7.23517 64.2234 8.00236C65.3675 8.76955 66.2664 9.7905 66.9202 11.0652C67.574 12.3281 67.9009 13.7209 67.9009 15.2434V24.7861H64.2584V15.2434C64.2584 14.37 64.0891 13.5792 63.7505 12.8711C63.4236 12.1629 62.9625 11.5963 62.3671 11.1714C61.7717 10.7465 61.0653 10.5341 60.2481 10.5341C59.4542 10.5341 58.7421 10.7465 58.1116 11.1714C57.4929 11.5963 57.0084 12.1629 56.6581 12.8711C56.3196 13.5792 56.1503 14.37 56.1503 15.2434V24.7861H52.5078V15.2434C52.5078 14.37 52.3327 13.5792 51.9824 12.8711C51.6322 12.1629 51.1477 11.5963 50.5289 11.1714C49.9101 10.7465 49.198 10.5341 48.3924 10.5341C47.6219 10.5341 46.9331 10.7583 46.326 11.2068C45.7306 11.6554 45.2578 12.2455 44.9075 12.9773C44.5573 13.7091 44.3822 14.5117 44.3822 15.3851V24.7861H40.7397Z" fill="white"/>
<path d="M78.6429 25.2464C77.0318 25.2464 75.5608 24.8274 74.2299 23.9894C72.9106 23.1514 71.854 22.0301 71.0602 20.6256C70.278 19.2092 69.8869 17.6453 69.8869 15.9339C69.8869 14.6356 70.1145 13.4258 70.5698 12.3045C71.0251 11.1714 71.6497 10.18 72.4436 9.33019C73.2492 8.46858 74.1832 7.79581 75.2456 7.31189C76.308 6.82797 77.4404 6.58602 78.6429 6.58602C79.9855 6.58602 81.2172 6.86928 82.3379 7.43582C83.4587 7.99056 84.416 8.76365 85.2099 9.75509C86.0038 10.7347 86.5875 11.8678 86.9611 13.1543C87.3347 14.429 87.4456 15.7864 87.2939 17.2263H73.792C73.9438 18.0407 74.2357 18.7784 74.6677 19.4394C75.1113 20.0885 75.6717 20.602 76.3488 20.9796C77.0376 21.3573 77.8023 21.5521 78.6429 21.5639C79.5302 21.5639 80.3357 21.3396 81.0596 20.8911C81.7951 20.4426 82.3963 19.823 82.8633 19.0322L86.5583 19.8997C85.8579 21.4695 84.8013 22.756 83.3887 23.7592C81.976 24.7507 80.3941 25.2464 78.6429 25.2464ZM73.6695 14.4113H83.6163C83.4996 13.5615 83.2019 12.7943 82.7232 12.1098C82.2562 11.4134 81.6666 10.8646 80.9545 10.4633C80.254 10.0502 79.4835 9.84361 78.6429 9.84361C77.814 9.84361 77.0435 10.0443 76.3313 10.4456C75.6308 10.8469 75.0471 11.3957 74.5801 12.0921C74.1248 12.7766 73.8212 13.5497 73.6695 14.4113Z" fill="white"/>
<path d="M94.0267 24.7861L87.7574 0H91.5225L96.1106 18.1824L100.681 0H103.991L108.579 18.1824L113.15 0H116.915L110.681 24.7861H106.495L102.327 8.37415L98.2121 24.7861H94.0267Z" fill="white"/>
<path d="M131.194 7.08174H135.082L125.485 33.6382H121.615L124.785 24.7861L118.498 7.08174H122.473L126.606 19.7403L131.194 7.08174Z" fill="white"/>
<path d="M143.371 25.1225C142.448 25.0634 141.549 24.8746 140.674 24.5559C139.798 24.2372 139.028 23.8064 138.362 23.2635C137.708 22.7088 137.218 22.0596 136.891 21.316L139.991 19.9705C140.142 20.2892 140.405 20.602 140.779 20.9088C141.164 21.2157 141.613 21.4695 142.127 21.6701C142.641 21.859 143.178 21.9534 143.738 21.9534C144.287 21.9534 144.795 21.8767 145.262 21.7232C145.741 21.558 146.132 21.3101 146.435 20.9796C146.739 20.6492 146.89 20.2538 146.89 19.7935C146.89 19.2741 146.715 18.8728 146.365 18.5896C146.027 18.2945 145.6 18.0702 145.087 17.9168C144.573 17.7634 144.059 17.6158 143.546 17.4742C142.402 17.2145 141.351 16.8604 140.393 16.4119C139.448 15.9516 138.695 15.3674 138.134 14.6592C137.574 13.9392 137.294 13.0599 137.294 12.0212C137.294 10.8882 137.592 9.90853 138.187 9.08233C138.794 8.24432 139.594 7.60106 140.586 7.15255C141.578 6.70404 142.635 6.47979 143.756 6.47979C145.157 6.47979 146.441 6.78076 147.608 7.38271C148.776 7.98466 149.669 8.81086 150.288 9.86132L147.398 11.5963C147.223 11.2423 146.961 10.9236 146.61 10.6403C146.26 10.357 145.863 10.1328 145.419 9.96754C144.976 9.7905 144.515 9.69018 144.036 9.66657C143.441 9.64296 142.886 9.71378 142.372 9.87902C141.87 10.0325 141.468 10.2803 141.164 10.6226C140.86 10.9649 140.709 11.4016 140.709 11.9327C140.709 12.4521 140.89 12.8415 141.252 13.1012C141.613 13.3491 142.069 13.5497 142.618 13.7032C143.178 13.8566 143.75 14.0277 144.334 14.2166C145.373 14.5471 146.348 14.9543 147.258 15.4382C148.169 15.9103 148.904 16.4945 149.465 17.1909C150.025 17.8873 150.294 18.7371 150.27 19.7403C150.27 20.8498 149.938 21.8236 149.272 22.6616C148.618 23.4996 147.766 24.1369 146.715 24.5736C145.665 25.0103 144.55 25.1933 143.371 25.1225Z" fill="white"/>
<path d="M160.902 25.2464C159.291 25.2464 157.82 24.8274 156.489 23.9894C155.169 23.1514 154.113 22.0301 153.319 20.6256C152.537 19.2092 152.146 17.6453 152.146 15.9339C152.146 14.6356 152.373 13.4258 152.829 12.3045C153.284 11.1714 153.909 10.18 154.702 9.33019C155.508 8.46858 156.442 7.79581 157.504 7.31189C158.567 6.82797 159.699 6.58602 160.902 6.58602C162.244 6.58602 163.476 6.86928 164.597 7.43582C165.718 7.99056 166.675 8.76365 167.469 9.75509C168.263 10.7347 168.846 11.8678 169.22 13.1543C169.594 14.429 169.705 15.7864 169.553 17.2263H156.051C156.203 18.0407 156.495 18.7784 156.927 19.4394C157.37 20.0885 157.931 20.602 158.608 20.9796C159.297 21.3573 160.061 21.5521 160.902 21.5639C161.789 21.5639 162.595 21.3396 163.318 20.8911C164.054 20.4426 164.655 19.823 165.122 19.0322L168.817 19.8997C168.117 21.4695 167.06 22.756 165.648 23.7592C164.235 24.7507 162.653 25.2464 160.902 25.2464ZM155.928 14.4113H165.875C165.758 13.5615 165.461 12.7943 164.982 12.1098C164.515 11.4134 163.926 10.8646 163.213 10.4633C162.513 10.0502 161.742 9.84361 160.902 9.84361C160.073 9.84361 159.302 10.0443 158.59 10.4456C157.89 10.8469 157.306 11.3957 156.839 12.0921C156.384 12.7766 156.08 13.5497 155.928 14.4113Z" fill="white"/>
</svg>
