<svg width="113" height="79" viewBox="0 0 113 79" fill="none" xmlns="http://www.w3.org/2000/svg">
<path d="M57.7467 55.134C56.8641 54.7617 55.8686 54.7617 54.986 55.134L32.3649 64.6743C25.2257 67.6852 27.3774 78.324 35.1255 78.324H77.6072C85.3553 78.324 87.507 67.6852 80.3678 64.6743L57.7467 55.134Z" fill="white"/>
<path opacity="0.7" d="M79.3368 32.7777L59.7002 5.11005C57.9207 2.60273 54.204 2.58674 52.403 5.07866L13.4946 58.9134C10.8065 62.6328 14.7737 67.5122 18.9634 65.6396L77.5082 39.4726C80.093 38.3173 80.9754 35.0866 79.3368 32.7777Z" fill="white"/>
<path opacity="0.4" d="M79.3368 32.7777L59.7002 5.11005C57.9207 2.60273 54.204 2.58674 52.403 5.07866L13.4946 58.9134C10.8065 62.6328 14.7737 67.5122 18.9634 65.6396L77.5082 39.4726C80.093 38.3173 80.9754 35.0866 79.3368 32.7777Z" fill="white"/>
<path opacity="0.7" d="M41.7356 19.5821L52.7631 4.04436C54.1716 2.05993 57.1132 2.04728 58.5386 4.01952L100.254 61.7384C102.382 64.6822 99.2419 68.544 95.926 67.0619L48.9716 46.0754C38.743 41.5036 35.2511 28.7187 41.7356 19.5821Z" fill="white"/>
<path opacity="0.7" fill-rule="evenodd" clip-rule="evenodd" d="M55.8557 49.1518L48.9777 46.0776C39.4091 41.8009 35.7358 30.3367 40.6101 21.3954L52.4012 5.08093C53.8565 3.06733 56.5627 2.69126 58.4869 3.94395C58.5064 3.96954 58.5257 3.99549 58.5447 4.02178L79.4315 32.9214C80.9372 35.2188 80.0389 38.3429 77.5065 39.4748L55.8557 49.1518Z" fill="white"/>
</svg>
